<?xml version="1.0" encoding="utf-8"?>
<!-- Generator: Adobe Illustrator 19.0.0, SVG Export Plug-In . SVG Version: 6.00 Build 0)  -->
<svg version="1.1" id="Layer_1" xmlns="http://www.w3.org/2000/svg" xmlns:xlink="http://www.w3.org/1999/xlink" x="0px" y="0px"
	 viewBox="0 0 512 512" style="enable-background:new 0 0 512 512;" xml:space="preserve">
<g id="XMLID_1_">
	<path id="XMLID_3_" d="M512,191.8H320.2l71.7-71.7C355.6,83.8,307.2,64.2,256,64.2s-99.6,19.5-135.9,55.9S64.2,204.8,64.2,256
		s19.5,99.6,55.9,135.9s84.7,55.9,135.9,55.9s99.6-19.5,135.9-55.9c2.8-2.8,5.6-6.5,8.4-9.3l48.4,41.9
		C402.2,478.5,333.3,512,256,512C114.5,512,0,397.5,0,256S114.5,0,256,0c70.7,0,135,28.9,180.6,75.4L512,0V191.8z"/>
</g>
</svg>
